<?xml version="1.0" encoding="utf-8"?>
<!-- Generator: Adobe Illustrator 23.0.5, SVG Export Plug-In . SVG Version: 6.00 Build 0)  -->
<svg version="1.1" id="Layer_1" xmlns="http://www.w3.org/2000/svg" xmlns:xlink="http://www.w3.org/1999/xlink" x="0px" y="0px"
	 viewBox="0 0 1567.84 383.44" style="enable-background:new 0 0 1567.84 383.44;" xml:space="preserve">
<style type="text/css">
	.st0{clip-path:url(#SVGID_2_);}
	.st1{fill:#0F0B2D;}
	.st2{fill:#FBE2B4;}
	.st3{fill:#7D6CF4;}
	.st4{fill:#593DEA;}
	.st5{fill:#AFA9FF;}
	.st6{fill:#F4C078;}
	.st7{fill:#3821AB;}
	.st8{fill:#FFFFFF;}
	.st9{clip-path:url(#SVGID_2_);fill:#7D6CF4;}
</style>
<g>
	<defs>
		<rect id="SVGID_1_" width="1567.84" height="383.44"/>
	</defs>
	<clipPath id="SVGID_2_">
		<use xlink:href="#SVGID_1_"  style="overflow:visible;"/>
	</clipPath>
	<g class="st0">
		<path class="st1" d="M309.67,354.79c0-14.34-50.21-25.96-112.15-25.96S85.36,340.46,85.36,354.79
			c0,14.34,50.21,25.96,112.15,25.96S309.67,369.13,309.67,354.79"/>
		<path class="st2" d="M115.25,198.48c-14.13-4.57-29.56-2.45-41.94,5.75c5.8,3.07,11.59,6.14,17.39,9.2"/>
		<path class="st2" d="M62.4,242.11c-13.16-1.43-26.09,4.22-33.99,14.84c6.97,2.13,13.94,4.26,20.91,6.4"/>
		<path class="st2" d="M38.54,291.88c-12.71,2.03-22.23,12.75-22.75,25.62c6.26-1.26,12.52-2.52,18.79-3.78"/>
		<path class="st3" d="M303.3,268.69c-13.9,21.55-38.19,33.08-63.68,35.9c-18.96,29.81-65.74,59.48-106.73,25.83
			c-28.86-23.69-75.43-14.68-97.24,21.3c-12.01-74.83,35.72-147.24,109.73-163.57c57.33-12.65,103.98-2.03,107.55-58.15
			c20.86,13.89,51.95,13.84,79.02,0.85C292.17,173.82,346.08,202.37,303.3,268.69"/>
		<path class="st4" d="M303.3,268.69c-13.9,21.55-38.19,33.08-63.68,35.9c-18.96,29.81-65.74,59.48-106.73,25.83
			c-28.64-23.51-74.72-14.82-96.73,20.48c8.98-59.01,70.99-79.75,139.58-50.48c49.75,21.23,79.93-47.8,34.14-59.56
			c22.71,1.38,39.19-23.71,23.08-32.63c20.1-3.6,88.85-27.6,49.38-68.15c15.95,1.65,33.49-1.5,49.61-9.23
			C292.17,173.82,346.08,202.37,303.3,268.69"/>
		<path class="st4" d="M269.83,127.86c-0.78,3.24-1.75,6.37-2.9,9.38c-0.01,0.03-0.02,0.06-0.03,0.09
			c-9.92,25.68-33.3,42.36-63.58,44.83v-1.75l21.69-5.25l18.39-13.4l7.43-15.65l1.71-13.08v-0.01l0.39-3.02L269.83,127.86z"/>
		<path class="st5" d="M178.41,190.53c-80.77,3.75-142.25,64.88-140.74,152.74l-3.87-5.42l1.86-32.32l11.08-37.77l12.49-21.2
			l15.84-21.41l53.18-32.07l28.17-6.43l12.17-1.19l7.39-1.49l1.71-0.44l4.18-1.08C184.31,185.64,182.45,190.34,178.41,190.53"/>
		<path class="st6" d="M83.42,208.26c6.65-5.31,14.81-8.38,23.31-8.75l1.65,1.44l-18.05,11.77L83.42,208.26z"/>
		<path class="st6" d="M38.98,258.41c4.25-6.33,10.48-11.08,17.71-13.5l1.37,1.21l-11.31,16.74L38.98,258.41z"/>
		<path class="st6" d="M24.06,314.53c0.65-7.36,4.43-14.1,10.37-18.49l2.72,1.62l-3.35,16.21L24.06,314.53z"/>
		<path class="st7" d="M89.76,241.08L89.76,241.08c-3.39-5.87,13.32-17.14,17.41-10.05C110.56,236.9,93.85,248.17,89.76,241.08"/>
		<path class="st7" d="M196.02,201.27L196.02,201.27c-3.39-5.87,13.32-17.14,17.41-10.05C216.81,197.09,200.11,208.35,196.02,201.27
			"/>
		<path class="st7" d="M118.05,245.58L118.05,245.58c-1.47-2.55,5.78-7.44,7.56-4.36C127.08,243.76,119.83,248.66,118.05,245.58"/>
		<path class="st7" d="M228.25,200.32L228.25,200.32c-1.47-2.55,5.78-7.44,7.56-4.36C237.28,198.51,230.03,203.4,228.25,200.32"/>
		<path class="st7" d="M166.41,276.52L166.41,276.52c-1.47-2.55,5.78-7.44,7.56-4.36C175.44,274.71,168.19,279.6,166.41,276.52"/>
		<path class="st7" d="M79.79,263.05L79.79,263.05c-2.43-4.21,9.54-12.28,12.47-7.2C94.7,260.05,82.73,268.12,79.79,263.05"/>
		<path class="st1" d="M35.65,354.72c-0.19,0-0.38-0.02-0.58-0.06c-1.24-0.24-2.19-1.23-2.39-2.47
			c-12.36-77.04,36.85-150.39,112.04-166.97c13.41-2.96,26.47-4.69,37.99-6.21c38.92-5.15,64.63-8.55,67.22-49.21
			c0.11-1.65,1.54-2.9,3.18-2.8c1.65,0.11,2.91,1.53,2.8,3.18c-2.9,45.58-33.58,49.64-72.42,54.77
			c-11.96,1.58-24.32,3.22-37.48,6.12C76.44,206.43,30.07,272.5,37.59,343.54c11.38-15.01,27.81-25.17,46.09-28.29
			c18.65-3.19,37.28,1.5,51.11,12.85c14.19,11.65,29.91,16.2,46.73,13.51c25.47-4.07,45.85-23.35,55.56-38.63
			c0.49-0.77,1.3-1.27,2.2-1.37c26.82-2.96,49.24-15.55,61.49-34.54c21.48-33.3,17.88-56.86,14.69-77.65
			c-3.05-19.94-5.94-38.77,14.28-60.6c1.13-1.22,3.03-1.29,4.24-0.16c1.22,1.13,1.29,3.02,0.16,4.24
			c-18.25,19.71-15.82,35.56-12.75,55.62c3.35,21.84,7.14,46.6-15.58,81.81c-13.02,20.18-36.46,33.64-64.46,37.09
			c-10.67,16.12-32.12,35.84-58.9,40.13c-18.33,2.93-36.13-2.18-51.49-14.79c-12.48-10.25-29.35-14.47-46.29-11.57
			c-19.14,3.27-36.08,14.97-46.47,32.11C37.67,354.18,36.69,354.72,35.65,354.72"/>
		<path class="st1" d="M90.7,216.44c-0.47,0-0.95-0.11-1.4-0.35l-17.39-9.2c-0.94-0.49-1.54-1.45-1.59-2.5
			c-0.05-1.06,0.46-2.06,1.34-2.65c13.21-8.76,29.44-10.99,44.52-6.11c1.58,0.51,2.44,2.2,1.93,3.78c-0.51,1.58-2.2,2.44-3.78,1.93
			c-11.66-3.78-24.1-2.74-34.85,2.76l12.64,6.69c1.46,0.77,2.02,2.59,1.25,4.05C92.82,215.86,91.78,216.44,90.7,216.44"/>
		<path class="st1" d="M49.32,266.34c-0.29,0-0.59-0.04-0.88-0.13l-20.91-6.4c-0.93-0.29-1.67-1.01-1.97-1.93
			c-0.3-0.93-0.14-1.94,0.44-2.73c8.5-11.42,22.57-17.57,36.72-16.03c1.65,0.18,2.84,1.66,2.66,3.31c-0.18,1.65-1.67,2.83-3.31,2.66
			c-10.59-1.15-21.13,2.75-28.43,10.32l16.56,5.06c1.58,0.49,2.48,2.16,1.99,3.75C51.8,265.51,50.61,266.34,49.32,266.34"/>
		<path class="st1" d="M15.79,320.5c-0.71,0-1.4-0.25-1.95-0.72c-0.7-0.6-1.09-1.48-1.05-2.4c0.57-14.24,11.2-26.21,25.27-28.46
			c1.64-0.27,3.17,0.85,3.44,2.49c0.26,1.64-0.85,3.17-2.49,3.44c-9.96,1.59-17.76,9.26-19.75,18.89l14.72-2.96
			c1.63-0.33,3.21,0.73,3.53,2.35c0.33,1.62-0.72,3.21-2.35,3.53l-18.78,3.78C16.19,320.48,15.99,320.5,15.79,320.5"/>
		<path class="st3" d="M251.86,362.99h-57.99c-9.2,0-16.67-7.46-16.67-16.67v-22.38c0-0.14-0.03-0.28-0.03-0.42
			c0-27.53-9.87-66.04,9.77-79.49c39.11-26.81,106.49,27.13,31.8,83.55c-0.84,0.64-1.35,1.63-1.35,2.69v4.15
			c0,2.39,2.43,4.08,4.63,3.15C247.93,326.66,267.99,362.99,251.86,362.99"/>
		<path class="st2" d="M245.94,362.91c4.11-6,5.26-13.55,3.13-20.5l8.02,11.7l0.29,5.39l-1.7,2.46l-5.92,1.91"/>
		<path class="st2" d="M245.94,362.91c4.11-6,5.26-13.55,3.13-20.5l8.02,11.7l0.29,5.39l-1.7,2.46l-5.92,1.91L245.94,362.91z"/>
		<path class="st6" d="M249.91,352.5c0.84,3.54,0.15,7.26-2.07,9.68l7.83-0.22C254.28,358.4,252.31,355.23,249.91,352.5"/>
		<path class="st4" d="M218.29,342.41l-0.9-12.14l3.95-4.87c0.03-0.02,0.05-0.05,0.08-0.07c0.44-0.37,0.87-0.75,1.29-1.13
			c0.1-0.08,0.2-0.17,0.3-0.26c0.35-0.31,0.7-0.63,1.05-0.95c0.45-0.41,0.89-0.82,1.32-1.24c0.44-0.41,0.87-0.83,1.29-1.25
			c0.43-0.42,0.85-0.84,1.26-1.27c0.42-0.42,0.83-0.85,1.23-1.28c0.06-0.06,0.12-0.12,0.18-0.19c0.34-0.37,0.69-0.74,1.02-1.11
			c0.4-0.44,0.79-0.87,1.17-1.31c0.64-0.73,1.26-1.46,1.87-2.2c2.31-2.81,4.39-5.68,6.22-8.55c0.64-0.07,1.27-0.15,1.91-0.23
			c0.22-0.03,0.44-0.06,0.67-0.09c22.23-31.45,4.62-58.38-19.51-65.48c-0.42-0.13-0.84-0.25-1.26-0.36
			c-0.72,0.01-1.46-0.01-2.21-0.06c0.58,0.34,1.14,0.7,1.68,1.06c-3.37,1.02-6.94,1.16-11.02,1.43
			c45.84,11.78,15.51,80.92-34.14,59.56c0.27,8.03,0.92,15.86,1.43,23.1c0.01,0.14,0.03,0.28,0.03,0.42v21.21v1.17
			c0,0,1.96,10.45,2.25,10.77c0.3,0.33,6.6,5.9,6.6,5.9l22.91,0.3l38.88-1.11c2.22-2.42,2.91-6.15,2.07-9.68
			C242.24,343.76,230.17,339.58,218.29,342.41"/>
		<path class="st7" d="M186.5,264.47L186.5,264.47c-3.39-5.87,13.32-17.14,17.41-10.05C207.29,260.29,190.59,271.56,186.5,264.47"/>
		<path class="st7" d="M186.37,284.95L186.37,284.95c-2.43-4.21,9.54-12.28,12.48-7.2C201.27,281.95,189.3,290.02,186.37,284.95"/>
		<path class="st1" d="M251.86,365.99h-61.35c-8.99,0-16.3-7.31-16.3-16.3v-25.96c0-1.66,1.34-3,3-3c1.66,0,3,1.34,3,3v25.96
			c0,5.68,4.62,10.3,10.3,10.3h61.35c2.18,0,2.48-0.86,2.61-1.23c0.94-2.71-1.8-9.71-8.41-14.96c-4.81-3.82-14.72-9.07-27.07-1.26
			c-0.92,0.58-2.09,0.62-3.05,0.09c-0.96-0.53-1.55-1.54-1.55-2.63v-11.41c0-0.96,0.46-1.86,1.24-2.43
			c28.1-20.45,36.39-50.71,28.17-68.17c-7.48-15.87-27.1-21.03-53.84-14.15c-1.61,0.41-3.24-0.55-3.65-2.16
			c-0.41-1.6,0.55-3.24,2.16-3.65c29.79-7.66,51.94-1.32,60.76,17.4c5.05,10.72,4.9,24.26-0.41,38.13
			c-5.27,13.76-15.34,26.68-28.42,36.53v4.89c13.93-6.18,25,0.61,29.4,4.11c7.99,6.35,12.43,15.65,10.34,21.64
			C258.97,364.08,255.95,365.99,251.86,365.99"/>
		<path class="st1" d="M244.8,365.99c-0.88,0-1.75-0.38-2.34-1.12c-1.04-1.29-0.83-3.18,0.46-4.22c2.03-1.63,3.37-4.78,3.66-8.63
			c0.34-4.35-0.77-8.04-2.04-9.42c-1.12-1.22-1.03-3.12,0.19-4.24c1.23-1.12,3.12-1.03,4.24,0.19c2.61,2.86,4.02,8.33,3.59,13.93
			c-0.43,5.58-2.52,10.14-5.89,12.84C246.13,365.77,245.46,365.99,244.8,365.99"/>
		<path class="st6" d="M178.72,175.16l-5.91-1.1c-3.53-9.48-12.05-16.21-22.1-17.45c7.43-18.57-6.01-38.88-26-39.3
			c5.93-29.15-13.79-57.36-43.21-61.79c42.75-6.12,86.17,18.15,105.16,56.94C175.95,132.36,172.07,153.57,178.72,175.16"/>
		<path class="st1" d="M178.73,178.19c-1.36,0-2.51-0.91-2.88-2.15c-0.09-0.28-0.13-0.58-0.13-0.88c0-1.66,1.34-3,3-3
			c1.36,0,2.51,0.91,2.88,2.15c0.09,0.28,0.13,0.58,0.13,0.88C181.73,176.85,180.39,178.19,178.73,178.19"/>
		<path class="st4" d="M201.23,179.37l-22.51-4.21c-6.65-21.59-2.77-42.8,7.94-62.7C167.67,73.67,124.25,49.4,81.5,55.52
			c24.06-11.57,51.98-12.06,76.43-1.34c24.46,10.73,43.02,31.59,50.81,57.12C193.35,130.66,190.43,157.13,201.23,179.37"/>
		<path class="st1" d="M201.24,182.37c-0.18,0-0.37-0.02-0.55-0.05l-22.14-4.13c-0.24-0.02-0.47-0.06-0.7-0.13l-5.58-1.04
			c-1.04-0.19-1.89-0.91-2.26-1.9c-3.15-8.47-10.68-14.42-19.65-15.53c-0.92-0.11-1.74-0.65-2.21-1.45c-0.47-0.8-0.55-1.78-0.2-2.64
			c3.17-7.92,2.28-16.56-2.44-23.68c-4.72-7.13-12.32-11.32-20.85-11.5c-0.89-0.02-1.72-0.43-2.28-1.13
			c-0.56-0.69-0.77-1.6-0.6-2.47c2.7-13.29-0.09-26.73-7.87-37.85S94.46,60.5,81.05,58.48c-1.47-0.22-2.56-1.49-2.55-2.98
			c0.01-1.49,1.1-2.75,2.57-2.96c21.18-3.03,43.69,1.22,63.35,11.97c19.46,10.64,35.41,27.19,44.93,46.62
			c0.43,0.87,0.4,1.89-0.05,2.74c-10.78,20.02-13.54,39.76-8.22,58.68l20.7,3.87c1.63,0.3,2.7,1.87,2.4,3.5
			C203.91,181.36,202.65,182.37,201.24,182.37 M154.65,154.29c8.48,2.09,15.6,7.74,19.56,15.53c-4.11-18.67-1.07-37.94,9.07-57.4
			c-16.32-32.02-50.2-53.26-84.98-54.74c8.12,4.03,15.14,10.06,20.51,17.74c8.08,11.55,11.36,25.34,9.4,39.15
			c9.03,1.19,17.18,6.23,22.27,13.92C155.56,136.15,157.03,145.56,154.65,154.29"/>
		<path class="st1" d="M201.23,182.37c-1.11,0-2.18-0.62-2.7-1.69c-11.01-22.66-8.28-49.95,6.88-69.98
			c-7.81-24.05-25.47-43.6-48.68-53.77c-23.68-10.38-50.63-9.91-73.93,1.29c-1.49,0.72-3.29,0.09-4-1.4c-0.72-1.49-0.09-3.29,1.4-4
			c24.88-11.96,53.66-12.46,78.94-1.37c25.28,11.09,44.41,32.59,52.47,58.99c0.29,0.94,0.09,1.97-0.52,2.74
			c-14.59,18.34-17.4,43.81-7.16,64.89c0.72,1.49,0.1,3.29-1.39,4.01C202.12,182.27,201.67,182.37,201.23,182.37"/>
		<path class="st2" d="M178.57,182.58l-5.97,0.82c-6.37-7.86-16.59-11.53-26.51-9.51c1.12-19.96-18.08-34.93-37.17-28.95
			c-3.67-29.53-31.35-49.98-60.65-44.81c38.57-19.42,85.26-11.77,115.63,18.94C160.09,141.35,165.38,164.23,178.57,182.58"/>
		<path class="st3" d="M204.21,182.02c-6.37,1.38-16.57,3.09-25.13,3.53c-13.19-18.35-18.99-44.2-15.18-66.48
			c-30.37-30.71-77.06-38.36-115.63-18.94C67.39,81.5,93.7,72.14,120.29,74.51c26.6,2.37,50.84,16.23,66.37,37.95
			C178.23,135.71,186.88,164.38,204.21,182.02"/>
		<path class="st6" d="M64.51,96.76c57.33,0.83,86.41,16.48,62.8,46.09l14.88,12.79l3.15,16.22l8.73,1.75l17.54,6.8l4.08,1.14
			l-1.25-5.34l-5.72-9.46l-4.41-17.17l-0.66-28.76l-7.79-7.58l-24.35-16.48l-25.84-6.95l-25.29-0.32L61.5,94.62L64.51,96.76z"/>
		<path class="st5" d="M81.36,87.49c34.72-12.74,73.71-2.15,97.21,26.41c-7.92,24.97-0.33,51.63,20.38,67.67l-9.25-18.26
			l-5.53-15.83l1.71-32.8l-1.49-5.24l-14.88-15.1l-14.68-11.22l-23.3-6.89l-35.27-2.08c0,0-21.73,8.09-22.2,8.31
			c-0.47,0.22-10.93,7.61-10.93,7.61v2.1L81.36,87.49z"/>
		<path class="st5" d="M182.94,185.28c-1.29,0.33-2.45,0.27-3.86,0.27c-0.48-0.66-0.94-1.34-1.39-2.02l4.18-1.08
			C182.52,183.3,182.86,184.29,182.94,185.28"/>
		<path class="st1" d="M172.6,186.4c-0.87,0-1.74-0.38-2.33-1.11c-5.69-7.02-14.72-10.26-23.57-8.45c-0.91,0.19-1.86-0.06-2.56-0.67
			c-0.7-0.61-1.09-1.51-1.03-2.44c0.48-8.52-3.11-16.42-9.86-21.67c-6.74-5.25-15.28-6.8-23.42-4.25c-0.85,0.26-1.77,0.14-2.52-0.34
			c-0.75-0.48-1.24-1.27-1.35-2.15c-1.67-13.46-8.61-25.31-19.52-33.37c-10.91-8.06-24.28-11.2-37.63-8.85
			c-1.46,0.25-2.9-0.6-3.37-2.01c-0.47-1.41,0.17-2.96,1.5-3.63c39.86-20.07,87.73-12.24,119.11,19.5c0.68,0.69,0.99,1.66,0.82,2.62
			c-3.65,21.35,1.51,43.67,14.15,61.26c0.97,1.34,0.66,3.22-0.68,4.19c-1.35,0.97-3.22,0.66-4.19-0.68
			c-0.18-0.25-0.37-0.51-0.54-0.77c-0.05,0.82-0.42,1.61-1.11,2.16C173.93,186.18,173.26,186.4,172.6,186.4 M151.57,170.34
			c7.8,0,15.31,3.03,20.95,8.53c-10.64-17.47-14.91-38.47-11.82-58.76C135.01,94.92,98.1,86.35,64.53,96.78
			c9.11,1.19,17.82,4.69,25.45,10.33c11.34,8.38,18.85,20.39,21.39,34.11c8.94-1.75,18.27,0.43,25.55,6.1
			c7.24,5.64,11.63,14.09,12.16,23.12C149.91,170.37,150.74,170.34,151.57,170.34"/>
		<path class="st1" d="M201.23,182.4c-0.78,0-1.55-0.3-2.14-0.9c-17.66-17.98-23.77-44.72-15.78-68.55
			c-15.06-20.31-38.04-33.21-63.28-35.46c-25.76-2.3-51.15,6.74-69.67,24.78c-1.19,1.15-3.09,1.13-4.24-0.06
			c-1.16-1.19-1.13-3.09,0.05-4.24c19.78-19.27,46.89-28.91,74.39-26.46c27.5,2.45,52.48,16.73,68.54,39.19
			c0.57,0.8,0.72,1.84,0.38,2.77c-7.99,22.05-2.54,47.1,13.89,63.82c1.16,1.18,1.14,3.08-0.04,4.24
			C202.75,182.12,201.99,182.4,201.23,182.4"/>
		<path d="M200.68,169.96c2.63,7.39,3.58,9.27,6.05,9.99l3.2,0.92c-4,0.9-5.27,1.11-8.32,1.54c-2.32,0.33-3.57-1.55-7.19-6.26"/>
		<path d="M179.75,185.46c0.85-0.1,1.59-0.64,1.96-1.42c0.36-0.78,0.29-1.69-0.18-2.41l-0.81-1.22l-1.47,1.92l-0.33,1.33l0.12,1.65
			L179.75,185.46z"/>
		<polyline points="179.75,185.46 172.89,186.38 171.59,184.73 171.88,182.94 176.62,181.55 		"/>
		<path class="st3" d="M256.32,177.67c8.97-0.24,17.56,3.65,23.28,10.56c5.73,6.91,7.96,16.07,6.05,24.84
			c4.65-1.58,9.3-3.16,13.96-4.74c1.97-6.43,7.87-10.85,14.6-10.93c6.73-0.08,12.73,4.21,14.84,10.6c2.11,6.39-0.15,13.41-5.6,17.36
			c-5.45,3.95-12.82,3.92-18.24-0.07c-27.48,9.79-37.42,16.38-42.89,5.76c-6.1-11.83-17.09-20.63-30.3-23.85
			C236.48,194.85,245.07,184.42,256.32,177.67"/>
		<path class="st2" d="M327.41,204.54c4.46,0.78,8.25,3.72,10.12,7.84c1.88,4.12,1.6,8.9-0.74,12.78c-1.03-3.68-4.38-6.23-8.2-6.24"
			/>
		<path class="st5" d="M255.07,177.12c-1.09,1.18-1.55,2.8-1.25,4.38c0.3,1.57,1.32,2.92,2.77,3.62
			c14.18,1.86,25.1,13.45,26.12,27.72l2.56-3.47l-1.1-12.36l-6.55-10.24l-15.7-9.09L255.07,177.12z"/>
		<path class="st5" d="M302.36,209.31c2.99-5.02,8.95-7.42,14.59-5.89c5.63,1.54,9.55,6.64,9.57,12.48l2.06-4.57l-3.72-12.46
			l-8.54-2.8l-9.13,1.11l-3.13,4.96L302.36,209.31z"/>
		<path class="st1" d="M270.45,239.45c-4.7,0-8.17-1.97-10.78-7.04c-5.77-11.2-16.1-19.33-28.34-22.31c-1.61-0.39-2.6-2.02-2.2-3.63
			c0.39-1.61,2.01-2.59,3.63-2.2c13.93,3.4,25.69,12.65,32.26,25.39c2.99,5.81,6.96,4.91,25.84-2.25c3.92-1.49,8.36-3.17,13.38-4.96
			c0.94-0.33,1.98-0.18,2.79,0.41c4.38,3.23,10.29,3.25,14.7,0.06c4.41-3.2,6.22-8.82,4.51-13.99c-1.7-5.12-6.43-8.54-11.82-8.54
			c-0.05,0-0.09,0-0.14,0c-5.44,0.06-10.17,3.6-11.76,8.81c-0.28,0.92-0.99,1.65-1.9,1.96l-13.96,4.74
			c-1.02,0.35-2.16,0.12-2.96-0.6c-0.81-0.72-1.16-1.82-0.93-2.88c1.72-7.92-0.26-16.04-5.43-22.29
			c-5.17-6.24-12.77-9.71-20.89-9.47c-1.65,0.01-3.04-1.26-3.08-2.92c-0.04-1.66,1.26-3.04,2.92-3.08
			c9.95-0.27,19.32,3.97,25.67,11.64c5.26,6.35,7.84,14.29,7.37,22.35l7.99-2.72c2.76-6.89,9.37-11.47,16.91-11.56
			c8.08-0.12,15.19,5,17.73,12.66c2.53,7.66-0.15,15.99-6.68,20.73c-6.08,4.41-14.09,4.69-20.41,0.84
			c-4.39,1.58-8.33,3.08-11.85,4.41C283.32,236.69,276.02,239.45,270.45,239.45"/>
		<path class="st1" d="M336.79,228.15c-0.13,0-0.27-0.01-0.4-0.03c-1.19-0.16-2.16-1.01-2.49-2.16c-0.67-2.38-2.85-4.04-5.32-4.05
			c-1.66-0.01-2.99-1.35-2.99-3.01c0.01-1.65,1.35-2.99,3-2.99h0.01c2.66,0.01,5.17,0.95,7.15,2.53c0.06-1.64-0.26-3.29-0.96-4.83
			c-1.47-3.22-4.42-5.51-7.91-6.13c-1.63-0.29-2.72-1.84-2.43-3.48c0.29-1.63,1.84-2.72,3.47-2.43c5.44,0.96,10.05,4.53,12.33,9.55
			c2.29,5.02,1.95,10.85-0.9,15.57C338.81,227.61,337.83,228.15,336.79,228.15"/>
		<path class="st3" d="M387.32,49.26c-6.57,79.37-91.55,106.37-131.58,83.24c-18.05,3.39-39.57-0.16-57.28-5.69
			c14.9-4.1,28-13.06,37.24-25.44c0,0-23.5-0.31-44.87-9.9c16.94-1.43,32.86-8.69,45.04-20.54c0,0-14.39-1.91-31.47-14.51
			c62.81,0,73.19-65.94,157.9-42.64C380.09,18.68,388.67,32.93,387.32,49.26"/>
		<path class="st8" d="M370.85,58.69c8.66,11.02,9.7,21.88-11.49,14.45L370.85,58.69z"/>
		<path class="st2" d="M284.24,140.5c-2.52-14.82,2.57-29.91,13.54-40.17c10.98-10.27,26.37-14.34,40.99-10.84l20.59-16.35
			l8.65,2.25l7.39-1.24l1.26-6.16l-4.36-7.96v-5.2l10.84-18.55h2.34l3.28,9.37l-2.85,14.38l-6.98,15.56l-0.2,6.94l-12.94,21.76
			l-25.97,22.13c0,0-19.19,11.4-19.59,10.92C319.83,136.85,284.24,140.5,284.24,140.5"/>
		<path class="st4" d="M269.83,127.86c-1.29,5.37-2.77,8.98-2.93,9.47c-3.92-0.79-8.16-2.73-11.16-4.83
			C254.68,132.7,269.83,127.86,269.83,127.86"/>
		<path class="st4" d="M208.64,126.41c19.76-0.97,40.69-12.24,52.4-25.85l-26.08,3.13l-17.84,16.4L208.64,126.41z"/>
		<path class="st4" d="M190.83,91.47c20.75,4.36,49.16-2.84,67.96-17.21l-22.04-3.72l-12.91,9.34l-24.01,10.18L190.83,91.47"/>
		<path class="st5" d="M380.54,30.65C296.36-10.8,269.83,62.91,218.98,62.91L208,56.42l22.96-4.4l28.15-14.89l29.2-18.45l29.57-9.89
			l28.96,2.5l25.45,6.75L380.54,30.65z"/>
		<path class="st6" d="M385.47,36.28l1.79,5.84l1.49,16.57l-10.03,24.59l-19.36,27.55l-16.07,13.65l-22.73,10.29l-25.09,5.6
			l-11.6-2.57c-0.01-0.18-0.02-0.36-0.02-0.54c0.06-2.93,2.7-5.14,5.63-5.05c50.42,1.49,94.94-43.54,94.04-94.19l1.08-6.05"/>
		<path class="st6" d="M378.6,71.76c-0.88,7.58-1.26,11.34-21.34,5.84l2.83-2.49l7.09,0.57l6.75-0.47l3.86-3.72L378.6,71.76z"/>
		<path class="st7" d="M274.38,114.78L274.38,114.78c-1.47-2.55,5.78-7.44,7.56-4.36C283.41,112.96,276.16,117.86,274.38,114.78"/>
		<path class="st7" d="M344.57,60.15L344.57,60.15c-1.47-2.55,5.78-7.44,7.56-4.36C353.6,58.33,346.35,63.22,344.57,60.15"/>
		<path class="st7" d="M279.14,98.88L279.14,98.88c-2.43-4.21,9.54-12.28,12.47-7.2C294.05,95.89,282.08,103.96,279.14,98.88"/>
		<path class="st4" d="M358,32.9c1.47,1.95,1.19,5.09-0.42,6c-1.9,1.07-4.67,1.27-6.13-0.68c-1.47-1.95-0.78-5.08,0.96-6.39
			C354.15,30.52,356.53,30.95,358,32.9"/>
		<path class="st5" d="M357.88,34.44c1.47,1.95,1.08,4.79-0.66,6.1c-1.74,1.31-4.41,0.77-5.88-1.17c-1.47-1.95-0.77-4.52-0.53-4.93
			C350.83,34.4,355.44,31.21,357.88,34.44"/>
		<path d="M290.86,143.51c-1.93,0-3.86-0.06-5.78-0.19c-1.65-0.11-2.9-1.54-2.8-3.19c0.11-1.65,1.54-2.9,3.19-2.8
			c43.79,2.9,94.04-30.05,98.86-88.32c1.32-15.95-7.21-28.04-22.82-32.34c-47.72-13.13-70.45,2.36-94.52,18.75
			c-15.28,10.41-31.02,21.13-53.31,23.51c14.95,8.71,32.29,12.53,49.69,10.81c1.66-0.16,3.12,1.04,3.28,2.69s-1.04,3.12-2.69,3.28
			c-21.87,2.16-43.65-3.83-61.33-16.88c-1.04-0.77-1.47-2.12-1.07-3.35c0.4-1.23,1.56-2.06,2.85-2.06
			c25.51,0,41.88-11.15,59.21-22.95c24.14-16.44,49.09-33.44,99.49-19.58c18.34,5.05,28.77,19.84,27.21,38.62
			c-3.09,37.32-22.27,59.78-37.82,72.05C334.61,135.67,312.45,143.51,290.86,143.51"/>
		<path d="M337.76,94.47c-1.02,0-2.02-0.52-2.58-1.46c-0.85-1.42-0.39-3.26,1.03-4.11c22.3-13.34,38.26-35.56,43.77-60.96
			c0.35-1.62,1.95-2.65,3.57-2.29c1.62,0.35,2.65,1.95,2.29,3.57c-5.86,27.01-22.83,50.64-46.55,64.83
			C338.81,94.33,338.28,94.47,337.76,94.47"/>
		<path d="M237.07,104.36c-16.25,0-32.45-3.41-47.46-10.15c-1.25-0.56-1.96-1.89-1.73-3.24c0.23-1.35,1.34-2.37,2.71-2.48
			c16.2-1.37,31.55-8.36,43.2-19.71c1.19-1.15,3.09-1.13,4.24,0.06c1.16,1.19,1.13,3.09-0.06,4.24
			c-9.95,9.68-22.37,16.44-35.78,19.61c20.82,6.96,43.4,7.55,64.66,1.55c1.6-0.45,3.25,0.48,3.7,2.07c0.45,1.6-0.48,3.25-2.07,3.7
			C258.2,102.92,247.62,104.36,237.07,104.36"/>
		<path d="M232.18,134.99c-11.61,0-23.25-1.77-34.61-5.32c-1.27-0.4-2.13-1.58-2.1-2.91c0.02-1.33,0.92-2.49,2.2-2.84
			c14.18-3.9,26.84-12.55,35.63-24.34c0.99-1.33,2.87-1.6,4.2-0.61c1.33,0.99,1.6,2.87,0.61,4.2c-7.6,10.19-17.86,18.23-29.49,23.25
			c19.39,4.28,39.35,3.23,58.26-3.13c1.57-0.53,3.27,0.32,3.8,1.89c0.53,1.57-0.32,3.27-1.89,3.8
			C256.86,132.98,244.53,134.99,232.18,134.99"/>
		<path d="M357.88,33.82c1.47,1.95,1.25,4.59-0.49,5.91c-1.74,1.31-4.35,0.8-5.81-1.15s-1.25-4.59,0.49-5.9
			C353.81,31.35,356.41,31.87,357.88,33.82"/>
		<path d="M361.02,16.49c14.48,4.37,20.15,11.05,14.43,26.36l5.23-11.4L380,27.64l-8.5-9.1L361.02,16.49z"/>
		<path d="M369.62,77.46c-2.24,0-5.07-0.47-8.67-1.71c-1.31-0.45-2-1.87-1.55-3.18c0.45-1.3,1.87-2,3.18-1.55
			c6.85,2.36,9.71,1.3,10.27,0.41c0.68-1.1-0.09-4.69-5.07-9.63c-0.98-0.97-0.99-2.55-0.02-3.54c0.97-0.98,2.55-0.99,3.54-0.02
			c6.06,6,8.23,11.92,5.8,15.82C376.17,75.55,374.11,77.46,369.62,77.46"/>
		<path class="st2" d="M323.99,46.11c5.74,9.95-0.89,24.52-14.81,32.56c-13.92,8.04-29.86,6.49-35.61-3.45
			c-5.74-9.94,0.89-24.52,14.81-32.56C302.31,34.62,318.25,36.16,323.99,46.11"/>
		<path d="M315.22,51.17c-3.74-6.48-14.14-7.49-23.21-2.25c-9.08,5.24-13.41,14.75-9.66,21.23c3.74,6.49,14.14,7.49,23.21,2.25
			C314.64,67.16,318.97,57.66,315.22,51.17 M301.6,57.11c-2.39,1.37-5.12,1.11-6.1-0.59c-0.99-1.71,0.15-4.2,2.54-5.58
			c2.38-1.38,5.11-1.11,6.09,0.59C305.12,53.23,303.98,55.73,301.6,57.11"/>
		<path d="M291.11,86.77c-8.71,0-16.32-3.45-20.13-10.06c-3.27-5.67-3.31-12.68-0.1-19.74c3.05-6.71,8.74-12.72,16.01-16.92
			c15.33-8.85,33.14-6.81,39.7,4.55c6.56,11.36-0.58,27.81-15.91,36.66C304.26,84.97,297.4,86.77,291.11,86.77 M306.59,40.47
			c-5.26,0-11.15,1.57-16.7,4.78c-6.2,3.58-11.01,8.62-13.55,14.21c-2.39,5.24-2.44,10.31-0.17,14.25
			c4.91,8.5,19.04,9.55,31.51,2.35c12.47-7.2,18.62-19.97,13.71-28.46C318.68,42.9,313.12,40.47,306.59,40.47"/>
		<path d="M315.22,51.17c-3.74-6.48-14.14-7.49-23.21-2.25c-9.08,5.24-13.41,14.75-9.66,21.23c3.74,6.49,14.14,7.49,23.21,2.25
			C314.64,67.16,318.97,57.66,315.22,51.17 M301.6,57.11c-2.39,1.37-5.12,1.11-6.1-0.59c-0.99-1.71,0.15-4.2,2.54-5.58
			c2.38-1.38,5.11-1.11,6.09,0.59C305.12,53.23,303.98,55.73,301.6,57.11"/>
	</g>
	<path class="st9" d="M423.56,156.62v-1.12h35v3.91c0,8.38,2.98,10.61,26.44,10.61c21.22,0,23.46-1.68,23.46-7.26
		c0-4.47-2.42-6.33-12.66-7.63l-39.1-5.22c-23.27-3.16-35-15.64-35-35.75c0-19.92,15.45-40.78,60.51-40.78
		c39.66,0,58.65,17.32,58.65,45.25v1.11h-35.01v-2.79c0-8.94-3.91-11.92-27.37-11.92c-17.88,0-21.78,2.42-21.78,7.82
		c0,3.91,2.23,5.77,8.93,6.7l39.1,5.78c30.53,4.47,38.72,20.11,38.72,36.12c0,21.41-16.38,40.41-58.46,40.41
		C446.83,201.87,423.56,188.27,423.56,156.62"/>
	<path class="st9" d="M551.81,166.3v-60.14h35v47.29c0,13.03,5.03,17.13,21.04,17.13c16.2,0,20.11-3.91,20.11-16.01v-48.41h35V200
		H630.2v-28.49h-1.86c-2.05,15.64-12.48,30.35-37.98,30.35C564.1,201.87,551.81,186.6,551.81,166.3"/>
	<path class="st9" d="M673.37,231.66V106.16h32.77v25.32H708c2.98-18.62,14.15-27.18,36.12-27.18c28.67,0,44.5,18.43,44.5,48.78
		c0,30.54-15.46,48.78-43.01,48.78c-22.16,0-32.59-10.43-35.38-26.07h-1.86v55.86H673.37z M731.46,170.03
		c16.2,0,21.79-4.47,21.79-16.94c0-12.48-5.59-16.76-21.79-16.76c-15.64,0-23.09,2.98-23.09,16.57v1.3
		C708.37,167.42,715.82,170.03,731.46,170.03"/>
	<path class="st9" d="M796.04,153.08c0-30.54,22.16-48.78,53.44-48.78c32.4,0,53.06,16.2,53.06,46.36c0,3.17-0.18,5.58-0.55,8.94
		h-73.55c0.56,11.36,5.58,14.52,20.48,14.52c14.15,0,17.87-2.42,17.87-8v-2.05h35.01v2.24c0,20.85-19.92,35.56-51.58,35.56
		C818.39,201.87,796.04,188.27,796.04,153.08 M829,141.91h39.66c-1.3-8.01-6.89-10.8-19.92-10.8
		C835.89,131.11,830.49,133.9,829,141.91"/>
	<path class="st9" d="M911.83,200v-93.84h32.77v24.58h1.86c2.61-15.46,12.29-26.44,30.91-26.44c20.67,0,28.86,13.59,28.86,32.4
		v18.62h-35v-10.99c0-7.82-2.98-10.61-12.1-10.61c-9.49,0-12.29,2.8-12.29,10.24V200H911.83z"/>
	<path class="st9" d="M1021.67,200v-65.17H1009v-28.67h13.41c3.72-17.69,21.04-30.91,51.76-30.91h7.45v24.95h-13.03
		c-9.68,0-14.34,0.93-14.15,5.96h27.19v28.67h-24.95V200H1021.67z"/>
	<path class="st9" d="M1089.05,166.3v-60.14h35v47.29c0,13.03,5.03,17.13,21.04,17.13c16.2,0,20.11-3.91,20.11-16.01v-48.41h35V200
		h-32.77v-28.49h-1.86c-2.05,15.64-12.47,30.35-37.98,30.35C1101.33,201.87,1089.05,186.6,1089.05,166.3"/>
	<path class="st9" d="M1210.6,200v-93.84h32.77v28.49h1.86c2.05-15.64,12.29-30.35,37.43-30.35c25.32,0,37.24,15.27,37.24,35.56V200
		h-35v-47.29c0-13.04-4.84-17.13-20.11-17.13c-15.45,0-19.18,3.91-19.18,16.01V200H1210.6z"/>
	<polygon class="st9" points="1322.85,200 1369.96,138.75 1369.96,136.33 1322.85,75.26 1368.66,75.26 1398.82,115.66 
		1401.24,115.66 1429.72,75.26 1475.53,75.26 1428.61,137.07 1428.61,139.49 1475.53,200 1429.72,200 1399.75,159.41 
		1397.33,159.41 1368.66,200 	"/>
</g>
</svg>
